<svg xmlns="http://www.w3.org/2000/svg" viewBox="0 0 400 400" width="400" height="400" role="img" aria-label="Masaüstü düzenleyici">
  <rect width="400" height="400" fill="#F1F7FE"/>
  <g fill="none" stroke="#141A26" stroke-opacity="0.06" stroke-width="1"><path d="M20 0V400"/><path d="M0 20H400"/><path d="M40 0V400"/><path d="M0 40H400"/><path d="M60 0V400"/><path d="M0 60H400"/><path d="M80 0V400"/><path d="M0 80H400"/><path d="M100 0V400"/><path d="M0 100H400"/><path d="M120 0V400"/><path d="M0 120H400"/><path d="M140 0V400"/><path d="M0 140H400"/><path d="M160 0V400"/><path d="M0 160H400"/><path d="M180 0V400"/><path d="M0 180H400"/><path d="M200 0V400"/><path d="M0 200H400"/><path d="M220 0V400"/><path d="M0 220H400"/><path d="M240 0V400"/><path d="M0 240H400"/><path d="M260 0V400"/><path d="M0 260H400"/><path d="M280 0V400"/><path d="M0 280H400"/><path d="M300 0V400"/><path d="M0 300H400"/><path d="M320 0V400"/><path d="M0 320H400"/><path d="M340 0V400"/><path d="M0 340H400"/><path d="M360 0V400"/><path d="M0 360H400"/><path d="M380 0V400"/><path d="M0 380H400"/></g>

  <g transform="translate(200 220)">
    <rect x="-130" y="-70" width="260" height="140" rx="14" fill="#3D9BE9"/>
    <rect x="-130" y="-70" width="260" height="16" rx="8" fill="#FFF8F1" opacity="0.5"/>
    <g fill="#FFF8F1">
      <rect x="-108" y="-46" width="60" height="94" rx="8"/>
      <rect x="-30" y="-46" width="60" height="94" rx="8"/>
      <rect x="48" y="-46" width="60" height="94" rx="8"/>
    </g>
    <g fill="#FF6B2C">
      <rect x="-92" y="-98" width="12" height="60" rx="6"/>
      <rect x="-70" y="-84" width="12" height="46" rx="6" fill="#FFC53D"/>
      <rect x="-4" y="-92" width="12" height="54" rx="6" fill="#12B5A5"/>
    </g>
  </g></svg>
