<svg xmlns="http://www.w3.org/2000/svg" viewBox="0 0 1318 358" width="1318" height="358" role="img" aria-label="Baskı tablası üzerinde yükselen model">
  <defs>
    <pattern id="grid3" width="22" height="22" patternUnits="userSpaceOnUse">
      <path d="M22 0H0V22" fill="none" stroke="#141A26" stroke-opacity="0.07" stroke-width="1"/>
    </pattern>
  </defs>
  <rect width="1318" height="358" fill="#F4ECE2"/>
  <rect width="1318" height="358" fill="url(#grid3)"/>
  <rect x="0" y="292" width="1318" height="66" fill="#141A26"/>
  <rect x="0" y="286" width="1318" height="8" fill="#FF6B2C"/>
  <g>
    <rect x="420" y="118" width="160" height="168" fill="#12B5A5"/>
    <rect x="420" y="118" width="160" height="10" fill="#FFF8F1" opacity="0.5"/>
    <rect x="600" y="176" width="120" height="110" fill="#FFC53D"/>
    <rect x="740" y="86" width="140" height="200" fill="#FF6B2C"/>
    <rect x="740" y="86" width="140" height="10" fill="#FFF8F1" opacity="0.5"/>
  </g>
  <g stroke="#141A26" stroke-opacity="0.18" stroke-width="2">
    <path d="M420 150 H580 M420 182 H580 M420 214 H580 M420 246 H580"/>
    <path d="M740 118 H880 M740 150 H880 M740 182 H880 M740 214 H880 M740 246 H880"/>
  </g>
  <g transform="translate(1080 100)">
    <rect x="-14" y="-60" width="28" height="60" rx="6" fill="#141A26"/>
    <path d="M-20 0 h40 l-20 34 z" fill="#141A26"/>
    <rect x="-4" y="40" width="8" height="150" rx="4" fill="#FF6B2C" opacity="0.5"/>
  </g>
</svg>
